<svg xmlns="http://www.w3.org/2000/svg" width="1180" height="360" viewBox="0 0 1180 360">
<rect width="100%" height="100%" fill="#ffffff"/>
<text x="34" y="34" font-family="Arial, sans-serif" font-size="22" font-weight="700" fill="#222" text-anchor="start">优化前：broadcast weight matmul 被拆成 copy + bmm</text>
<text x="34" y="60" font-family="Arial, sans-serif" font-size="13" font-weight="400" fill="#555" text-anchor="start">one request window: 31.63 ms, kernels: 80</text>
<line x1="190.00" y1="74" x2="190.00" y2="256" stroke="#e5e7eb" stroke-width="1"/>
<text x="190.0" y="64" font-family="Arial, sans-serif" font-size="11" font-weight="400" fill="#666" text-anchor="middle">0.0ms</text>
<line x1="340.00" y1="74" x2="340.00" y2="256" stroke="#e5e7eb" stroke-width="1"/>
<text x="340.0" y="64" font-family="Arial, sans-serif" font-size="11" font-weight="400" fill="#666" text-anchor="middle">5.3ms</text>
<line x1="490.00" y1="74" x2="490.00" y2="256" stroke="#e5e7eb" stroke-width="1"/>
<text x="490.0" y="64" font-family="Arial, sans-serif" font-size="11" font-weight="400" fill="#666" text-anchor="middle">10.5ms</text>
<line x1="640.00" y1="74" x2="640.00" y2="256" stroke="#e5e7eb" stroke-width="1"/>
<text x="640.0" y="64" font-family="Arial, sans-serif" font-size="11" font-weight="400" fill="#666" text-anchor="middle">15.8ms</text>
<line x1="790.00" y1="74" x2="790.00" y2="256" stroke="#e5e7eb" stroke-width="1"/>
<text x="790.0" y="64" font-family="Arial, sans-serif" font-size="11" font-weight="400" fill="#666" text-anchor="middle">21.1ms</text>
<line x1="940.00" y1="74" x2="940.00" y2="256" stroke="#e5e7eb" stroke-width="1"/>
<text x="940.0" y="64" font-family="Arial, sans-serif" font-size="11" font-weight="400" fill="#666" text-anchor="middle">26.4ms</text>
<line x1="1090.00" y1="74" x2="1090.00" y2="256" stroke="#e5e7eb" stroke-width="1"/>
<text x="1090.0" y="64" font-family="Arial, sans-serif" font-size="11" font-weight="400" fill="#666" text-anchor="middle">31.6ms</text>
<line x1="190" y1="74" x2="1090" y2="74" stroke="#222" stroke-width="1"/>
<text x="34" y="115" font-family="Arial, sans-serif" font-size="14" font-weight="700" fill="#d95f5f" text-anchor="start">clone_expand/copy</text>
<rect x="190" y="92" width="900" height="30" fill="#f8fafc" stroke="#e5e7eb" rx="3"/>
<rect x="202.85" y="97" width="16.83" height="20" fill="#d95f5f" opacity="0.88" rx="2"><title>triton_poi_fused_clone_expand_4 591.64 us</title></rect>
<rect x="229.29" y="97" width="16.70" height="20" fill="#d95f5f" opacity="0.88" rx="2"><title>triton_poi_fused_clone_expand_4 586.92 us</title></rect>
<rect x="254.25" y="97" width="1.30" height="20" fill="#d95f5f" opacity="0.88" rx="2"><title>triton_per_fused__to_copy_add_native_layer_norm_squeeze_unsqueeze_view_6 13.64 us</title></rect>
<rect x="254.63" y="97" width="67.65" height="20" fill="#d95f5f" opacity="0.88" rx="2"><title>triton_poi_fused_clone_expand_7 2377.45 us</title></rect>
<rect x="365.22" y="97" width="67.63" height="20" fill="#d95f5f" opacity="0.88" rx="2"><title>triton_poi_fused_clone_expand_7 2376.73 us</title></rect>
<rect x="477.70" y="97" width="67.61" height="20" fill="#d95f5f" opacity="0.88" rx="2"><title>triton_poi_fused_clone_expand_7 2376.33 us</title></rect>
<rect x="576.77" y="97" width="1.30" height="20" fill="#d95f5f" opacity="0.88" rx="2"><title>triton_per_fused__to_copy_add_native_layer_norm_squeeze_view_11 21.40 us</title></rect>
<rect x="577.38" y="97" width="1.30" height="20" fill="#d95f5f" opacity="0.88" rx="2"><title>triton_per_fused__to_copy_native_layer_norm_unsqueeze_view_12 19.28 us</title></rect>
<rect x="577.93" y="97" width="16.71" height="20" fill="#d95f5f" opacity="0.88" rx="2"><title>triton_poi_fused_clone_expand_4 587.12 us</title></rect>
<rect x="602.92" y="97" width="16.79" height="20" fill="#d95f5f" opacity="0.88" rx="2"><title>triton_poi_fused_clone_expand_4 590.20 us</title></rect>
<rect x="628.09" y="97" width="16.80" height="20" fill="#d95f5f" opacity="0.88" rx="2"><title>triton_poi_fused_clone_expand_4 590.52 us</title></rect>
<rect x="654.43" y="97" width="16.69" height="20" fill="#d95f5f" opacity="0.88" rx="2"><title>triton_poi_fused_clone_expand_4 586.68 us</title></rect>
<rect x="679.39" y="97" width="1.30" height="20" fill="#d95f5f" opacity="0.88" rx="2"><title>triton_per_fused__to_copy_add_native_layer_norm_squeeze_unsqueeze_view_14 12.44 us</title></rect>
<rect x="679.74" y="97" width="16.69" height="20" fill="#d95f5f" opacity="0.88" rx="2"><title>triton_poi_fused_clone_expand_4 586.72 us</title></rect>
<rect x="706.34" y="97" width="16.70" height="20" fill="#d95f5f" opacity="0.88" rx="2"><title>triton_poi_fused_clone_expand_4 586.96 us</title></rect>
<rect x="731.33" y="97" width="1.30" height="20" fill="#d95f5f" opacity="0.88" rx="2"><title>triton_per_fused__to_copy_add_native_layer_norm_squeeze_unsqueeze_view_15 21.12 us</title></rect>
<rect x="731.93" y="97" width="67.66" height="20" fill="#d95f5f" opacity="0.88" rx="2"><title>triton_poi_fused_clone_expand_7 2378.09 us</title></rect>
<rect x="843.04" y="97" width="67.68" height="20" fill="#d95f5f" opacity="0.88" rx="2"><title>triton_poi_fused_clone_expand_7 2378.53 us</title></rect>
<rect x="955.39" y="97" width="67.68" height="20" fill="#d95f5f" opacity="0.88" rx="2"><title>triton_poi_fused_clone_expand_7 2378.65 us</title></rect>
<rect x="1054.49" y="97" width="1.30" height="20" fill="#d95f5f" opacity="0.88" rx="2"><title>triton_per_fused__to_copy_add_native_layer_norm_squeeze_view_16 16.56 us</title></rect>
<rect x="1054.96" y="97" width="2.59" height="20" fill="#d95f5f" opacity="0.88" rx="2"><title>triton_poi_fused__to_copy_add_cat_native_layer_norm_select_squeeze_view_17 90.92 us</title></rect>
<rect x="1057.55" y="97" width="1.30" height="20" fill="#d95f5f" opacity="0.88" rx="2"><title>triton_tem_fused__to_copy_add_addmm_cat_elu_native_layer_norm_select_squeeze_t_view_18 26.08 us</title></rect>
<rect x="1059.02" y="97" width="1.30" height="20" fill="#d95f5f" opacity="0.88" rx="2"><title>triton_tem_fused__to_copy_add_addmm_cat_elu_native_layer_norm_select_squeeze_t_view_18 27.20 us</title></rect>
<rect x="1060.52" y="97" width="1.30" height="20" fill="#d95f5f" opacity="0.88" rx="2"><title>triton_tem_fused__to_copy_add_addmm_cat_elu_native_layer_norm_select_squeeze_t_view_18 27.32 us</title></rect>
<rect x="1062.02" y="97" width="1.30" height="20" fill="#d95f5f" opacity="0.88" rx="2"><title>triton_tem_fused__to_copy_add_addmm_cat_elu_native_layer_norm_select_squeeze_t_view_18 27.08 us</title></rect>
<rect x="1063.52" y="97" width="1.30" height="20" fill="#d95f5f" opacity="0.88" rx="2"><title>triton_tem_fused__to_copy_add_addmm_cat_elu_native_layer_norm_select_squeeze_t_view_18 27.48 us</title></rect>
<rect x="1065.02" y="97" width="1.30" height="20" fill="#d95f5f" opacity="0.88" rx="2"><title>triton_tem_fused__to_copy_add_addmm_cat_elu_native_layer_norm_select_squeeze_t_view_18 27.04 us</title></rect>
<rect x="1066.52" y="97" width="1.30" height="20" fill="#d95f5f" opacity="0.88" rx="2"><title>triton_tem_fused__to_copy_add_addmm_cat_elu_native_layer_norm_select_squeeze_t_view_18 27.36 us</title></rect>
<rect x="1068.02" y="97" width="1.30" height="20" fill="#d95f5f" opacity="0.88" rx="2"><title>triton_tem_fused__to_copy_add_addmm_cat_elu_native_layer_norm_select_squeeze_t_view_18 27.24 us</title></rect>
<rect x="1069.51" y="97" width="1.30" height="20" fill="#d95f5f" opacity="0.88" rx="2"><title>triton_tem_fused__to_copy_add_addmm_cat_elu_native_layer_norm_select_squeeze_t_view_18 27.36 us</title></rect>
<rect x="1072.85" y="97" width="1.30" height="20" fill="#d95f5f" opacity="0.88" rx="2"><title>triton_per_fused__to_copy_native_layer_norm_unsqueeze_view_0 3.28 us</title></rect>
<rect x="1074.13" y="97" width="1.30" height="20" fill="#d95f5f" opacity="0.88" rx="2"><title>triton_per_fused__to_copy_add_native_layer_norm_squeeze_unsqueeze_view_3 6.68 us</title></rect>
<rect x="1074.52" y="97" width="15.48" height="20" fill="#d95f5f" opacity="0.88" rx="2"><title>triton_poi_fused_clone_expand_4 587.36 us</title></rect>
<text x="34" y="159" font-family="Arial, sans-serif" font-size="14" font-weight="700" fill="#4b78d8" text-anchor="start">broadcast_bmm</text>
<rect x="190" y="136" width="900" height="30" fill="#f8fafc" stroke="#e5e7eb" rx="3"/>
<rect x="194.49" y="141" width="8.36" height="20" fill="#4b78d8" opacity="0.88" rx="2"><title>triton_tem_fused__unsafe_view_bmm_clone_expand_unsqueeze_view_5 293.84 us</title></rect>
<rect x="219.69" y="141" width="8.38" height="20" fill="#4b78d8" opacity="0.88" rx="2"><title>triton_tem_fused__unsafe_view_bmm_clone_expand_unsqueeze_view_5 294.68 us</title></rect>
<rect x="245.99" y="141" width="8.26" height="20" fill="#4b78d8" opacity="0.88" rx="2"><title>triton_tem_fused__unsafe_view_bmm_clone_expand_unsqueeze_view_5 290.28 us</title></rect>
<rect x="322.28" y="141" width="42.94" height="20" fill="#4b78d8" opacity="0.88" rx="2"><title>triton_tem_fused__to_copy__unsafe_view_bmm_clone_expand_unsqueeze_view_8 1509.01 us</title></rect>
<rect x="432.84" y="141" width="42.93" height="20" fill="#4b78d8" opacity="0.88" rx="2"><title>triton_tem_fused__to_copy__unsafe_view_bmm_clone_expand_unsqueeze_view_8 1508.69 us</title></rect>
<rect x="545.31" y="141" width="31.46" height="20" fill="#4b78d8" opacity="0.88" rx="2"><title>triton_tem_fused__unsafe_view_bmm_clone_expand_mul_silu_squeeze_unsqueeze_view_10 1105.60 us</title></rect>
<rect x="594.63" y="141" width="8.29" height="20" fill="#4b78d8" opacity="0.88" rx="2"><title>triton_tem_fused__to_copy__unsafe_view_bmm_clone_expand_unsqueeze_view_13 291.28 us</title></rect>
<rect x="619.72" y="141" width="8.37" height="20" fill="#4b78d8" opacity="0.88" rx="2"><title>triton_tem_fused__to_copy__unsafe_view_bmm_clone_expand_unsqueeze_view_13 294.20 us</title></rect>
<rect x="644.89" y="141" width="8.31" height="20" fill="#4b78d8" opacity="0.88" rx="2"><title>triton_tem_fused__to_copy__unsafe_view_bmm_clone_expand_unsqueeze_view_13 292.00 us</title></rect>
<rect x="671.12" y="141" width="8.27" height="20" fill="#4b78d8" opacity="0.88" rx="2"><title>triton_tem_fused__unsafe_view_bmm_clone_expand_unsqueeze_view_5 290.56 us</title></rect>
<rect x="696.44" y="141" width="8.30" height="20" fill="#4b78d8" opacity="0.88" rx="2"><title>triton_tem_fused__to_copy__unsafe_view_bmm_clone_expand_unsqueeze_view_13 291.68 us</title></rect>
<rect x="704.74" y="141" width="1.30" height="20" fill="#4b78d8" opacity="0.88" rx="2"><title>triton_tem_fused_bmm_empty_like_transpose_unsqueeze_view_2 6.60 us</title></rect>
<rect x="704.92" y="141" width="1.30" height="20" fill="#4b78d8" opacity="0.88" rx="2"><title>triton_tem_fused_bmm_empty_like_transpose_unsqueeze_view_2 6.92 us</title></rect>
<rect x="723.04" y="141" width="8.30" height="20" fill="#4b78d8" opacity="0.88" rx="2"><title>triton_tem_fused__unsafe_view_bmm_clone_expand_unsqueeze_view_5 291.56 us</title></rect>
<rect x="799.60" y="141" width="43.44" height="20" fill="#4b78d8" opacity="0.88" rx="2"><title>triton_tem_fused__to_copy__unsafe_view_bmm_clone_expand_unsqueeze_view_8 1526.65 us</title></rect>
<rect x="910.72" y="141" width="42.72" height="20" fill="#4b78d8" opacity="0.88" rx="2"><title>triton_tem_fused__to_copy__unsafe_view_bmm_clone_expand_unsqueeze_view_8 1501.53 us</title></rect>
<rect x="1023.07" y="141" width="31.42" height="20" fill="#4b78d8" opacity="0.88" rx="2"><title>triton_tem_fused__unsafe_view_bmm_clone_expand_mul_silu_squeeze_unsqueeze_view_10 1104.24 us</title></rect>
<rect x="1073.13" y="141" width="1.30" height="20" fill="#4b78d8" opacity="0.88" rx="2"><title>triton_tem_fused__to_copy_bmm_unsqueeze_view_1 4.44 us</title></rect>
<rect x="1073.40" y="141" width="1.30" height="20" fill="#4b78d8" opacity="0.88" rx="2"><title>triton_tem_fused__to_copy_bmm_unsqueeze_view_1 4.52 us</title></rect>
<rect x="1073.53" y="141" width="1.30" height="20" fill="#4b78d8" opacity="0.88" rx="2"><title>triton_tem_fused__to_copy_bmm_unsqueeze_view_1 7.04 us</title></rect>
<rect x="1073.93" y="141" width="1.30" height="20" fill="#4b78d8" opacity="0.88" rx="2"><title>triton_tem_fused_bmm_empty_like_transpose_unsqueeze_view_2 7.00 us</title></rect>
<rect x="1074.32" y="141" width="1.30" height="20" fill="#4b78d8" opacity="0.88" rx="2"><title>triton_tem_fused__to_copy_bmm_unsqueeze_view_1 7.08 us</title></rect>
<text x="34" y="203" font-family="Arial, sans-serif" font-size="14" font-weight="700" fill="#8a63d2" text-anchor="start">attention</text>
<rect x="190" y="180" width="900" height="30" fill="#f8fafc" stroke="#e5e7eb" rx="3"/>
<rect x="228.07" y="185" width="1.30" height="20" fill="#8a63d2" opacity="0.88" rx="2"><title>_large_batch_lt32_seq_lt32_d_flash_attention_triton 42.72 us</title></rect>
<rect x="653.20" y="185" width="1.30" height="20" fill="#8a63d2" opacity="0.88" rx="2"><title>_large_batch_lt32_seq_lt32_d_flash_attention_triton 43.24 us</title></rect>
<rect x="705.12" y="185" width="1.30" height="20" fill="#8a63d2" opacity="0.88" rx="2"><title>_large_batch_lt32_seq_lt32_d_flash_attention_triton 42.76 us</title></rect>
<rect x="1073.73" y="185" width="1.30" height="20" fill="#8a63d2" opacity="0.88" rx="2"><title>_flash_attention_unmasked_compact_align 6.80 us</title></rect>
<text x="34" y="247" font-family="Arial, sans-serif" font-size="14" font-weight="700" fill="#c18d19" text-anchor="start">dense/elementwise</text>
<rect x="190" y="224" width="900" height="30" fill="#f8fafc" stroke="#e5e7eb" rx="3"/>
<rect x="475.77" y="229" width="1.93" height="20" fill="#c18d19" opacity="0.88" rx="2"><title>triton_poi_fused_mul_silu_squeeze_view_9 67.72 us</title></rect>
<rect x="953.44" y="229" width="1.95" height="20" fill="#c18d19" opacity="0.88" rx="2"><title>triton_poi_fused_mul_silu_squeeze_view_9 68.48 us</title></rect>
<rect x="1058.29" y="229" width="1.30" height="20" fill="#c18d19" opacity="0.88" rx="2"><title>triton_tem_fused_addmm_elu_t_19 15.60 us</title></rect>
<rect x="1058.73" y="229" width="1.30" height="20" fill="#c18d19" opacity="0.88" rx="2"><title>triton_tem_fused_add_addmm_clamp_div_elu_squeeze_t_20 10.08 us</title></rect>
<rect x="1059.79" y="229" width="1.30" height="20" fill="#c18d19" opacity="0.88" rx="2"><title>triton_tem_fused_addmm_elu_t_19 15.52 us</title></rect>
<rect x="1060.23" y="229" width="1.30" height="20" fill="#c18d19" opacity="0.88" rx="2"><title>triton_tem_fused_add_addmm_clamp_div_elu_squeeze_t_21 10.00 us</title></rect>
<rect x="1061.30" y="229" width="1.30" height="20" fill="#c18d19" opacity="0.88" rx="2"><title>triton_tem_fused_addmm_elu_t_19 15.48 us</title></rect>
<rect x="1061.74" y="229" width="1.30" height="20" fill="#c18d19" opacity="0.88" rx="2"><title>triton_tem_fused_add_addmm_clamp_div_elu_squeeze_t_22 10.00 us</title></rect>
<rect x="1062.80" y="229" width="1.30" height="20" fill="#c18d19" opacity="0.88" rx="2"><title>triton_tem_fused_addmm_elu_t_19 15.32 us</title></rect>
<rect x="1063.23" y="229" width="1.30" height="20" fill="#c18d19" opacity="0.88" rx="2"><title>triton_tem_fused_add_addmm_clamp_div_elu_squeeze_t_23 10.04 us</title></rect>
<rect x="1064.30" y="229" width="1.30" height="20" fill="#c18d19" opacity="0.88" rx="2"><title>triton_tem_fused_addmm_elu_t_19 15.16 us</title></rect>
<rect x="1064.73" y="229" width="1.30" height="20" fill="#c18d19" opacity="0.88" rx="2"><title>triton_tem_fused_add_addmm_clamp_div_elu_squeeze_t_24 10.16 us</title></rect>
<rect x="1065.79" y="229" width="1.30" height="20" fill="#c18d19" opacity="0.88" rx="2"><title>triton_tem_fused_addmm_elu_t_19 15.28 us</title></rect>
<rect x="1066.22" y="229" width="1.30" height="20" fill="#c18d19" opacity="0.88" rx="2"><title>triton_tem_fused_add_addmm_clamp_div_elu_squeeze_t_25 10.28 us</title></rect>
<rect x="1067.29" y="229" width="1.30" height="20" fill="#c18d19" opacity="0.88" rx="2"><title>triton_tem_fused_addmm_elu_t_19 15.40 us</title></rect>
<rect x="1067.73" y="229" width="1.30" height="20" fill="#c18d19" opacity="0.88" rx="2"><title>triton_tem_fused_add_addmm_clamp_div_elu_squeeze_t_26 10.04 us</title></rect>
<rect x="1068.79" y="229" width="1.30" height="20" fill="#c18d19" opacity="0.88" rx="2"><title>triton_tem_fused_addmm_elu_t_19 15.32 us</title></rect>
<rect x="1069.23" y="229" width="1.30" height="20" fill="#c18d19" opacity="0.88" rx="2"><title>triton_tem_fused_add_addmm_clamp_div_elu_squeeze_t_27 10.00 us</title></rect>
<rect x="1070.29" y="229" width="1.30" height="20" fill="#c18d19" opacity="0.88" rx="2"><title>triton_tem_fused_addmm_elu_t_19 15.12 us</title></rect>
<rect x="1070.72" y="229" width="1.30" height="20" fill="#c18d19" opacity="0.88" rx="2"><title>triton_tem_fused_add_addmm_clamp_div_elu_squeeze_t_28 9.84 us</title></rect>
<rect x="190" y="317" width="12" height="12" fill="#d95f5f" rx="2"/>
<text x="208" y="328" font-family="Arial, sans-serif" font-size="12" font-weight="400" fill="#555" text-anchor="start">clone_expand/copy</text>
<rect x="350" y="317" width="12" height="12" fill="#4b78d8" rx="2"/>
<text x="368" y="328" font-family="Arial, sans-serif" font-size="12" font-weight="400" fill="#555" text-anchor="start">broadcast_bmm</text>
<rect x="510" y="317" width="12" height="12" fill="#8a63d2" rx="2"/>
<text x="528" y="328" font-family="Arial, sans-serif" font-size="12" font-weight="400" fill="#555" text-anchor="start">attention</text>
<rect x="670" y="317" width="12" height="12" fill="#c18d19" rx="2"/>
<text x="688" y="328" font-family="Arial, sans-serif" font-size="12" font-weight="400" fill="#555" text-anchor="start">dense/elementwise</text>
</svg>